<svg xmlns="http://www.w3.org/2000/svg" width="1200" height="760" viewBox="0 0 1200 760">
  <defs>
    <linearGradient id="g" x1="0" y1="0" x2="1" y2="1">
      <stop offset="0%" stop-color="#f5f3ff"/>
      <stop offset="100%" stop-color="#ffffff"/>
    </linearGradient>
    <filter id="shadow" x="-10%" y="-10%" width="120%" height="120%">
      <feDropShadow dx="0" dy="18" stdDeviation="16" flood-color="#0f3d25" flood-opacity="0.18"/>
    </filter>
  </defs>
  <rect width="1200" height="760" rx="54" fill="url(#g)"/>
  <circle cx="1050" cy="110" r="110" fill="#7c3aed" opacity="0.12"/>
  <circle cx="170" cy="640" r="150" fill="#7c3aed" opacity="0.10"/>
  <g filter="url(#shadow)">
    <rect x="115" y="125" width="970" height="510" rx="44" fill="#ffffff"/>
  </g>
  <g transform="translate(170 175)">
    <rect x="0" y="210" width="860" height="120" rx="30" fill="#7c3aed" opacity="0.12"/>
    <path d="M40 300 C190 185, 310 210, 420 132 C555 36, 700 75, 810 190" fill="none" stroke="#7c3aed" stroke-width="22" stroke-linecap="round"/>
    <path d="M90 325 C210 255, 295 270, 390 210 C520 130, 650 160, 785 260" fill="none" stroke="#f5b942" stroke-width="14" stroke-linecap="round" opacity="0.85"/>
    <g transform="translate(70 345)">
      <rect x="0" y="0" width="90" height="78" rx="16" fill="#7c3aed" opacity="0.9"/>
      <path d="M10 8 L45 -18 L82 8" fill="#f5b942"/>
      <rect x="20" y="31" width="18" height="47" rx="4" fill="#fff"/>
      <rect x="52" y="32" width="20" height="20" rx="4" fill="#fff"/>
    </g>
    <g transform="translate(700 335)">
      <rect x="0" y="0" width="116" height="82" rx="18" fill="#7c3aed"/>
      <path d="M-10 5 L58 -36 L126 5" fill="#f5b942"/>
      <rect x="20" y="35" width="25" height="47" rx="5" fill="#fff"/>
      <rect x="66" y="35" width="28" height="24" rx="5" fill="#fff"/>
    </g>
    <g fill="#7c3aed">
      <circle cx="250" cy="385" r="15"/>
      <circle cx="310" cy="395" r="15"/>
      <circle cx="370" cy="385" r="15"/>
      <circle cx="430" cy="397" r="15"/>
      <circle cx="490" cy="383" r="15"/>
      <circle cx="550" cy="396" r="15"/>
      <circle cx="610" cy="384" r="15"/>
    </g>
  </g>
  <text x="600" y="105" text-anchor="middle" font-family="Arial, sans-serif" font-size="56" font-weight="800" fill="#123524">Bidding System</text>
  <text x="600" y="665" text-anchor="middle" font-family="Arial, sans-serif" font-size="30" fill="#3b5546">Farmers submit offers for procurement requests</text>
</svg>